<?xml version="1.0" encoding="UTF-8" standalone="no"?>
<svg
   id="Christmas_Tree"
   style="enable-background:new 0 0 24 24;"
   version="1.1"
   viewBox="0 0 24 24"
   xml:space="preserve"
   sodipodi:docname="christmas_tree_icon.svg"
   inkscape:version="1.2.2 (732a01da63, 2022-12-09)"
   xmlns:inkscape="http://www.inkscape.org/namespaces/inkscape"
   xmlns:sodipodi="http://sodipodi.sourceforge.net/DTD/sodipodi-0.dtd"
   xmlns="http://www.w3.org/2000/svg"
   xmlns:svg="http://www.w3.org/2000/svg"><defs
     id="defs45" /><sodipodi:namedview
     id="namedview43"
     pagecolor="#ffffff"
     bordercolor="#000000"
     borderopacity="0.25"
     inkscape:showpageshadow="2"
     inkscape:pageopacity="0.0"
     inkscape:pagecheckerboard="0"
     inkscape:deskcolor="#d1d1d1"
     showgrid="false"
     inkscape:zoom="13.906433"
     inkscape:cx="-0.75504622"
     inkscape:cy="18.300882"
     inkscape:window-width="1368"
     inkscape:window-height="842"
     inkscape:window-x="-6"
     inkscape:window-y="-6"
     inkscape:window-maximized="1"
     inkscape:current-layer="Christmas_Tree" /><title
     id="title2" /><g
     id="g40"
     transform="matrix(0.45909273,0,0,0.45909273,6.4908727,6.4861441)"><path
       id="polygon4"
       style="fill:#0db14b"
       d="M 9.5,9.5 5,15 h 3 l -4.5,5.5 h 17 L 16,15 h 3 L 14.5,9.5 h 3 l -5.5,-6 -5.5,6 z" /><path
       id="polygon6"
       style="opacity:0.2;fill:#ffffff;enable-background:new"
       d="M 9.09,9.5 12,3.5 6.5,9.5 Z" /><path
       id="polygon8"
       style="opacity:0.1;enable-background:new"
       d="M 14.91,9.5 H 17.5 L 12,3.5 Z" /><path
       id="polygon10"
       style="opacity:0.2;fill:#ffffff;enable-background:new"
       d="m 8,15 -4.5,5.5 h 4 L 9.88,15 H 8.29 L 10.68,9.5 H 9.5 L 5,15 Z" /><path
       id="polygon12"
       style="opacity:0.1;enable-background:new"
       d="m 15.71,15 h -1.59 l 2.38,5.5 h 4 L 16,15 h 3 L 14.5,9.5 h -1.18 z" /><g
       id="g22"><path
         id="circle14"
         style="fill:#ffcf01"
         d="m 12.5,8 a 1,1 0 0 1 -1,1 1,1 0 0 1 -1,-1 1,1 0 0 1 1,-1 1,1 0 0 1 1,1 z" /><path
         id="circle16"
         style="fill:#ffcf01"
         d="m 15,13 a 1,1 0 0 1 -1,1 1,1 0 0 1 -1,-1 1,1 0 0 1 1,-1 1,1 0 0 1 1,1 z" /><path
         id="circle18"
         style="fill:#ffcf01"
         d="m 11,17 a 1,1 0 0 1 -1,1 1,1 0 0 1 -1,-1 1,1 0 0 1 1,-1 1,1 0 0 1 1,1 z" /><path
         id="circle20"
         style="fill:#ffcf01"
         d="m 16,18 a 1,1 0 0 1 -1,1 1,1 0 0 1 -1,-1 1,1 0 0 1 1,-1 1,1 0 0 1 1,1 z" /></g><path
       d="m 10.44,20.5 c -0.087,1.145 -0.601,2.216 -1.44,3 h 6 c -0.839,-0.784 -1.353,-1.855 -1.44,-3 z"
       id="_Path_"
       style="fill:#9d581f" /><path
       d="m 10.44,20.5 c -0.087,1.145 -0.601,2.216 -1.44,3 h 2 c 0.312,-0.97 0.474,-1.981 0.48,-3 z"
       style="opacity:0.2;fill:#ffffff;enable-background:new"
       id="path25" /><path
       d="m 13.56,20.5 h -1 c 0.006,1.019 0.168,2.03 0.48,3 h 2 c -0.854,-0.778 -1.383,-1.849 -1.48,-3 z"
       style="opacity:0.1;enable-background:new"
       id="path27" /><path
       id="polygon29"
       style="fill:#ffcf01"
       d="M 9.29,2.53 11.2,2.13 12,0.5 12.8,2.13 14.71,2.53 13.3,3.65 13.6,5.44 12,4.59 10.4,5.44 10.7,3.65 Z" /><path
       d="M 20.89,20.18 17.06,15.5 H 19 c 0.276,0.003 0.503,-0.218 0.506,-0.494 0.001,-0.119 -0.04,-0.234 -0.116,-0.326 L 15.56,10 H 17.5 C 17.776,10.002 18.002,9.78 18.003,9.503 18.004,9.376 17.956,9.253 17.87,9.16 L 14,5 13.81,3.88 15,2.92 C 15.235,2.775 15.308,2.467 15.162,2.232 15.085,2.106 14.956,2.021 14.81,2 L 13.14,1.64 12.45,0.28 C 12.306,0.031 11.988,-0.053 11.739,0.091 11.66,0.137 11.595,0.202 11.55,0.28 L 10.86,1.69 9.19,2 C 8.917,2.04 8.728,2.294 8.768,2.568 8.79,2.713 8.875,2.842 9,2.92 L 10.18,3.85 10,5 6.13,9.16 C 5.942,9.362 5.954,9.679 6.157,9.867 6.25,9.953 6.373,10.001 6.5,10 H 8.44 L 4.61,14.68 C 4.433,14.892 4.462,15.207 4.674,15.384 4.766,15.46 4.881,15.501 5,15.5 H 6.94 L 3.11,20.18 C 2.933,20.392 2.962,20.707 3.174,20.884 3.266,20.96 3.381,21.001 3.5,21 H 9.83 C 9.7,21.807 9.302,22.547 8.7,23.1 8.479,23.266 8.434,23.579 8.6,23.8 8.694,23.926 8.843,24 9,24 h 6 c 0.276,0 0.5,-0.224 0.5,-0.5 0,-0.157 -0.074,-0.306 -0.2,-0.4 -0.602,-0.553 -1,-1.293 -1.13,-2.1 h 6.33 c 0.276,0.003 0.503,-0.218 0.506,-0.494 0.001,-0.119 -0.04,-0.235 -0.116,-0.326 z M 11.3,2.61 C 11.449,2.576 11.574,2.477 11.64,2.34 L 12,1.63 12.35,2.35 c 0.066,0.137 0.191,0.236 0.34,0.27 L 13.56,2.81 13,3.26 c -0.144,0.115 -0.213,0.299 -0.18,0.48 l 0.13,0.79 -0.71,-0.37 c -0.144,-0.075 -0.316,-0.075 -0.46,0 L 11.07,4.53 11.2,3.74 C 11.228,3.555 11.151,3.37 11,3.26 L 10.42,2.8 Z M 13.89,23 h -3.78 c 0.369,-0.616 0.623,-1.293 0.75,-2 h 2.26 c 0.133,0.708 0.394,1.386 0.77,2 z M 4.56,20 8.39,15.32 C 8.567,15.108 8.538,14.793 8.326,14.616 8.234,14.54 8.119,14.499 8,14.5 H 6.06 L 9.89,9.82 C 10.067,9.608 10.038,9.293 9.826,9.116 9.734,9.04 9.619,8.999 9.5,9 H 7.64 l 2.83,-3.09 c 0.053,0.009 0.107,0.009 0.16,0 L 12,5.16 13.37,5.88 c 0.056,0.01 0.114,0.01 0.17,0 L 16.36,9 H 14.5 c -0.276,-0.003 -0.503,0.218 -0.506,0.494 -10e-4,0.119 0.04,0.234 0.116,0.326 l 3.83,4.68 H 16 c -0.276,-0.003 -0.503,0.218 -0.506,0.494 -10e-4,0.119 0.04,0.234 0.116,0.326 L 19.44,20 Z"
       style="fill:#303c42"
       id="path31" /><linearGradient
       gradientTransform="matrix(1,0,0,-1,0,24)"
       gradientUnits="userSpaceOnUse"
       id="SVGID_1_"
       x1="5.4201999"
       x2="22.4202"
       y1="14.3604"
       y2="6.4303999"><stop
         offset="0"
         style="stop-color:#FFFFFF;stop-opacity:0.2"
         id="stop33" /><stop
         offset="1"
         style="stop-color:#FFFFFF;stop-opacity:0"
         id="stop35" /></linearGradient><path
       d="M 20.89,20.18 17.06,15.5 H 19 c 0.276,0.003 0.503,-0.218 0.506,-0.494 0.001,-0.119 -0.04,-0.234 -0.116,-0.326 L 15.56,10 H 17.5 C 17.776,10.002 18.002,9.78 18.003,9.503 18.004,9.376 17.956,9.253 17.87,9.16 L 14,5 13.81,3.88 15,2.92 C 15.235,2.775 15.308,2.467 15.162,2.232 15.085,2.106 14.956,2.021 14.81,2 L 13.14,1.64 12.45,0.28 C 12.306,0.031 11.988,-0.053 11.739,0.091 11.66,0.137 11.595,0.202 11.55,0.28 L 10.86,1.69 9.19,2 C 8.917,2.04 8.728,2.294 8.768,2.568 8.79,2.713 8.875,2.842 9,2.92 L 10.18,3.85 10,5 6.13,9.16 C 5.942,9.362 5.954,9.679 6.157,9.867 6.25,9.953 6.373,10.001 6.5,10 H 8.44 L 4.61,14.68 C 4.433,14.892 4.462,15.207 4.674,15.384 4.766,15.46 4.881,15.501 5,15.5 H 6.94 L 3.11,20.18 C 2.933,20.392 2.962,20.707 3.174,20.884 3.266,20.96 3.381,21.001 3.5,21 H 9.83 C 9.7,21.807 9.302,22.547 8.7,23.1 8.479,23.266 8.434,23.579 8.6,23.8 8.694,23.926 8.843,24 9,24 h 6 c 0.276,0 0.5,-0.224 0.5,-0.5 0,-0.157 -0.074,-0.306 -0.2,-0.4 -0.602,-0.553 -1,-1.293 -1.13,-2.1 h 6.33 c 0.276,0.003 0.503,-0.218 0.506,-0.494 0.001,-0.119 -0.04,-0.235 -0.116,-0.326 z"
       style="fill:url(#SVGID_1_)"
       id="path38" /></g></svg>
